<svg id="visual" viewBox="0 0 900 600" width="900" height="600" xmlns="http://www.w3.org/2000/svg" xmlns:xlink="http://www.w3.org/1999/xlink" version="1.1"><path d="M0 55L53 55L53 55L106 55L106 55L159 55L159 37L212 37L212 37L265 37L265 37L318 37L318 31L371 31L371 37L424 37L424 43L476 43L476 13L529 13L529 43L582 43L582 61L635 61L635 43L688 43L688 43L741 43L741 19L794 19L794 61L847 61L847 25L900 25L900 31L900 0L900 0L847 0L847 0L794 0L794 0L741 0L741 0L688 0L688 0L635 0L635 0L582 0L582 0L529 0L529 0L476 0L476 0L424 0L424 0L371 0L371 0L318 0L318 0L265 0L265 0L212 0L212 0L159 0L159 0L106 0L106 0L53 0L53 0L0 0Z" fill="#001122"></path><path d="M0 121L53 121L53 133L106 133L106 175L159 175L159 79L212 79L212 67L265 67L265 97L318 97L318 115L371 115L371 103L424 103L424 121L476 121L476 115L529 115L529 73L582 73L582 139L635 139L635 115L688 115L688 133L741 133L741 73L794 73L794 109L847 109L847 115L900 115L900 103L900 29L900 23L847 23L847 59L794 59L794 17L741 17L741 41L688 41L688 41L635 41L635 59L582 59L582 41L529 41L529 11L476 11L476 41L424 41L424 35L371 35L371 29L318 29L318 35L265 35L265 35L212 35L212 35L159 35L159 53L106 53L106 53L53 53L53 53L0 53Z" fill="#183c5d"></path><path d="M0 145L53 145L53 157L106 157L106 193L159 193L159 133L212 133L212 121L265 121L265 139L318 139L318 139L371 139L371 151L424 151L424 157L476 157L476 169L529 169L529 103L582 103L582 151L635 151L635 151L688 151L688 169L741 169L741 103L794 103L794 121L847 121L847 151L900 151L900 145L900 101L900 113L847 113L847 107L794 107L794 71L741 71L741 131L688 131L688 113L635 113L635 137L582 137L582 71L529 71L529 113L476 113L476 119L424 119L424 101L371 101L371 113L318 113L318 95L265 95L265 65L212 65L212 77L159 77L159 173L106 173L106 131L53 131L53 119L0 119Z" fill="#316d9f"></path><path d="M0 211L53 211L53 235L106 235L106 217L159 217L159 163L212 163L212 175L265 175L265 181L318 181L318 223L371 223L371 175L424 175L424 229L476 229L476 187L529 187L529 139L582 139L582 223L635 223L635 211L688 211L688 223L741 223L741 175L794 175L794 193L847 193L847 175L900 175L900 187L900 143L900 149L847 149L847 119L794 119L794 101L741 101L741 167L688 167L688 149L635 149L635 149L582 149L582 101L529 101L529 167L476 167L476 155L424 155L424 149L371 149L371 137L318 137L318 137L265 137L265 119L212 119L212 131L159 131L159 191L106 191L106 155L53 155L53 143L0 143Z" fill="#4aa1e8"></path><path d="M0 271L53 271L53 271L106 271L106 229L159 229L159 211L212 211L212 229L265 229L265 235L318 235L318 247L371 247L371 229L424 229L424 277L476 277L476 241L529 241L529 169L582 169L582 277L635 277L635 265L688 265L688 241L741 241L741 241L794 241L794 211L847 211L847 217L900 217L900 211L900 185L900 173L847 173L847 191L794 191L794 173L741 173L741 221L688 221L688 209L635 209L635 221L582 221L582 137L529 137L529 185L476 185L476 227L424 227L424 173L371 173L371 221L318 221L318 179L265 179L265 173L212 173L212 161L159 161L159 215L106 215L106 233L53 233L53 209L0 209Z" fill="#4facf7"></path><path d="M0 355L53 355L53 373L106 373L106 271L159 271L159 295L212 295L212 283L265 283L265 331L318 331L318 325L371 325L371 343L424 343L424 301L476 301L476 313L529 313L529 265L582 265L582 355L635 355L635 313L688 313L688 301L741 301L741 307L794 307L794 253L847 253L847 313L900 313L900 283L900 209L900 215L847 215L847 209L794 209L794 239L741 239L741 239L688 239L688 263L635 263L635 275L582 275L582 167L529 167L529 239L476 239L476 275L424 275L424 227L371 227L371 245L318 245L318 233L265 233L265 227L212 227L212 209L159 209L159 227L106 227L106 269L53 269L53 269L0 269Z" fill="#4aa1e8"></path><path d="M0 409L53 409L53 421L106 421L106 493L159 493L159 373L212 373L212 439L265 439L265 505L318 505L318 475L371 475L371 397L424 397L424 385L476 385L476 493L529 493L529 475L582 475L582 415L635 415L635 499L688 499L688 445L741 445L741 379L794 379L794 451L847 451L847 451L900 451L900 457L900 281L900 311L847 311L847 251L794 251L794 305L741 305L741 299L688 299L688 311L635 311L635 353L582 353L582 263L529 263L529 311L476 311L476 299L424 299L424 341L371 341L371 323L318 323L318 329L265 329L265 281L212 281L212 293L159 293L159 269L106 269L106 371L53 371L53 353L0 353Z" fill="#316d9f"></path><path d="M0 475L53 475L53 463L106 463L106 511L159 511L159 421L212 421L212 475L265 475L265 523L318 523L318 493L371 493L371 451L424 451L424 451L476 451L476 541L529 541L529 505L582 505L582 457L635 457L635 517L688 517L688 463L741 463L741 439L794 439L794 475L847 475L847 511L900 511L900 505L900 455L900 449L847 449L847 449L794 449L794 377L741 377L741 443L688 443L688 497L635 497L635 413L582 413L582 473L529 473L529 491L476 491L476 383L424 383L424 395L371 395L371 473L318 473L318 503L265 503L265 437L212 437L212 371L159 371L159 491L106 491L106 419L53 419L53 407L0 407Z" fill="#183c5d"></path><path d="M0 601L53 601L53 601L106 601L106 601L159 601L159 601L212 601L212 601L265 601L265 601L318 601L318 601L371 601L371 601L424 601L424 601L476 601L476 601L529 601L529 601L582 601L582 601L635 601L635 601L688 601L688 601L741 601L741 601L794 601L794 601L847 601L847 601L900 601L900 601L900 503L900 509L847 509L847 473L794 473L794 437L741 437L741 461L688 461L688 515L635 515L635 455L582 455L582 503L529 503L529 539L476 539L476 449L424 449L424 449L371 449L371 491L318 491L318 521L265 521L265 473L212 473L212 419L159 419L159 509L106 509L106 461L53 461L53 473L0 473Z" fill="#001122"></path></svg>